<svg xmlns="http://www.w3.org/2000/svg" width="512" height="512" version="1.1" viewBox="0 0 200 200" xml:space="preserve"><defs><filter id="c" width="1.196" height="1.121" x="-.098" y="-.061" color-interpolation-filters="sRGB"><feGaussianBlur stdDeviation="4.439"/></filter><linearGradient id="d" x1="142.88" x2="167.7" y1="6.085" y2="42.341" gradientTransform="translate(-38.928,18.353)" gradientUnits="userSpaceOnUse"><stop offset="0" stop-color="#adadad"/><stop offset=".1" stop-color="#909090"/><stop offset=".264" stop-color="#fff"/><stop offset=".391" stop-color="#8f8f8f"/><stop offset=".484" stop-color="#fff"/><stop offset=".729" stop-color="#909090"/><stop offset="1" stop-color="#fff"/></linearGradient><radialGradient id="e" cx="173.11" cy="50.61" r="12.412" gradientTransform="matrix(.80597 .46062 -.567 .99211 .444 -38.718)" gradientUnits="userSpaceOnUse"><stop offset="0" stop-color="#8e8e8e"/><stop offset="1" stop-color="#fff" stop-opacity="0"/></radialGradient><linearGradient id="f" x1="72.735" x2="72.735" y1="13.672" y2="89.743" gradientUnits="userSpaceOnUse"><stop offset=".175" stop-color="#fff" stop-opacity=".996"/><stop offset=".482" stop-color="#d5d5d5" stop-opacity=".996"/><stop offset=".517" stop-color="#afafaf" stop-opacity=".996"/><stop offset=".577" stop-color="#fff" stop-opacity=".996"/><stop offset=".754" stop-color="#fff" stop-opacity=".996"/><stop offset="1" stop-color="#7b7b7b"/></linearGradient><radialGradient id="g" cx="161.68" cy="28.904" r="9.928" gradientTransform="matrix(.8067 -.59096 1.0877 1.4848 12.706 78.531)" gradientUnits="userSpaceOnUse"><stop offset="0" stop-color="#838383"/><stop offset=".844" stop-color="#fff"/><stop offset="1" stop-color="#fff" stop-opacity="0"/></radialGradient><radialGradient id="h" cx="185.36" cy="56.123" r="14.238" gradientTransform="matrix(1.6566 .74581 -1.7447 3.8753 -23.908 -305.86)" gradientUnits="userSpaceOnUse"><stop offset="0" stop-color="#fff"/><stop offset=".417" stop-color="#7f7f7f"/><stop offset="1"/></radialGradient><radialGradient id="i" cx="182.55" cy="56.494" r="14.238" gradientTransform="matrix(.2594 -.26586 .07053 .06881 128.19 93.441)" gradientUnits="userSpaceOnUse"><stop offset=".198" stop-color="#fff"/><stop offset="1" stop-color="#d9d9d9" stop-opacity="0"/></radialGradient><filter id="j" width="1.029" height="1.013" x="-.015" y="-.006" color-interpolation-filters="sRGB"><feGaussianBlur stdDeviation=".175"/></filter><radialGradient id="k" cx="175.44" cy="27.123" r="6.822" gradientTransform="matrix(1.3203 -.54872 .16813 .40454 -60.861 112.07)" gradientUnits="userSpaceOnUse"><stop offset=".454"/><stop offset="1" stop-opacity="0"/></radialGradient><radialGradient id="l" cx="112.24" cy="141.59" r="3.704" gradientTransform="matrix(-.39121 -1.8463 -2.6784 .56755 520.41 276.67)" gradientUnits="userSpaceOnUse"><stop offset="0" stop-color="#fff"/><stop offset=".156" stop-color="#a6a6a6"/><stop offset=".406" stop-color="#6a6a6a"/><stop offset=".534" stop-color="#a6a6a6"/></radialGradient><linearGradient id="m" x1="105.16" x2="112.77" y1="146.7" y2="147.36" gradientTransform="matrix(-5.6965,0,0,5.6965,700.2,-742.48)" gradientUnits="userSpaceOnUse"><stop offset=".105" stop-color="#7a7a7a"/><stop offset=".184" stop-color="#b9b9b9"/><stop offset=".834" stop-color="#b7b7b7"/><stop offset="1" stop-color="#fff"/></linearGradient><linearGradient id="n" x1="105.16" x2="112.77" y1="146.7" y2="147.36" gradientTransform="matrix(5.6965,0,0,5.6965,-492.3,-742.48)" gradientUnits="userSpaceOnUse"><stop offset=".105" stop-color="#7a7a7a"/><stop offset=".184" stop-color="#b9b9b9"/><stop offset=".834" stop-color="#b7b7b7"/><stop offset="1" stop-color="#9e9e9e"/></linearGradient><radialGradient id="o" cx="111.43" cy="149.02" r="1.375" gradientTransform="matrix(1.1912,1.6152,-2.0036,1.4776,277.56,-251.41)" gradientUnits="userSpaceOnUse"><stop offset=".386" stop-color="#b7b7b7" stop-opacity=".992"/><stop offset=".702" stop-color="#5a5a5a"/></radialGradient><radialGradient id="p" cx="111.7" cy="142.45" r="3.704" gradientTransform="matrix(-.36471 1.8517 -1.6668 -.3283 384.27 -11.509)" gradientUnits="userSpaceOnUse"><stop offset=".094" stop-color="#767676"/><stop offset=".746" stop-color="#d8d8d8"/><stop offset=".84" stop-color="#6a6a6a"/><stop offset=".951" stop-color="#969696" stop-opacity=".992"/></radialGradient><linearGradient id="q" x1="102.26" x2="102.85" y1="159.42" y2="151.65" gradientTransform="matrix(-1,0,0,1,209.34,0)" gradientUnits="userSpaceOnUse"><stop offset="0" stop-color="#c9c9c9"/><stop offset=".2" stop-color="#8d8d8d" stop-opacity=".996"/><stop offset=".344" stop-color="#bbb"/><stop offset="1" stop-color="#c4c4c4" stop-opacity=".996"/></linearGradient><radialGradient id="r" cx="104.71" cy="163.84" r="1.673" gradientTransform="matrix(.97956 .20114 -.39154 1.9068 66.257 -169.14)" gradientUnits="userSpaceOnUse"><stop offset="0" stop-color="#b4b4b4"/><stop offset=".917" stop-color="#333" stop-opacity=".957"/></radialGradient><linearGradient id="s" x1="101.32" x2="104.67" y1="160.4" y2="164.34" gradientUnits="userSpaceOnUse"><stop offset="0" stop-color="#b4b4b4"/><stop offset=".288" stop-color="#f4f4f4" stop-opacity=".992"/><stop offset=".541" stop-color="#b4b4b4" stop-opacity=".992"/><stop offset=".707" stop-color="#cecece" stop-opacity=".996"/><stop offset="1" stop-color="#e9e9e9"/></linearGradient><linearGradient id="t" x1="102.35" x2="103.44" y1="160.36" y2="148.6" gradientUnits="userSpaceOnUse"><stop offset="0" stop-color="#c9c9c9"/><stop offset=".154" stop-color="#fff"/><stop offset="1" stop-color="#aaa"/></linearGradient><radialGradient id="u" cx="111.37" cy="148.97" r="1.375" gradientTransform="matrix(-1.1912,1.6152,2.0036,1.4776,-68.215,-251.41)" gradientUnits="userSpaceOnUse"><stop offset=".386" stop-color="#fff" stop-opacity=".992"/><stop offset=".702" stop-color="#c3c3c3"/></radialGradient><mask id="v" maskUnits="userSpaceOnUse"><path fill="none" stroke="#fefefe" stroke-linecap="square" stroke-width="4" d="m31.614 72.396c-12.141.637-13.048 3.3-16.585 5.488l11.191 11.526 7.773 2.233 4.58-13.277zm-4.375-44.601c-2.077-.83-5.13-5.584-10.649-9l7.246.193 2.385 2.427 1.786-4.494 3.762-.04 3.206-7.23 1.727 13.614-6.873-3.793zm-.652 8.583c-2.752-1.971-11.557-8.583-16.532-9.19l-.077 1.72c1.975 5.032 11.682 1.642 16.608 7.47zm-3.298 15.695c-5.482.039-12.391-1.46-15.64-3.423l.615 6.178c6.126.267 10.503-.754 15.025-2.755z" filter="url(#a)" paint-order="markers fill stroke"/></mask><filter id="a" width="1.357" height="1.197" x="-.179" y="-.128" color-interpolation-filters="sRGB"><feGaussianBlur stdDeviation="1.317"/></filter><mask id="w" maskUnits="userSpaceOnUse"><path fill="#fff" fill-opacity=".996" stroke="#fcfcfc" stroke-linecap="square" stroke-width="4" d="m65.85 9.404c-3.144-2.808-6.64-5.205-8.6-9.404l-10.425 8.016c4.567-2.542 16.534 2.996 21.099 4.537 1.924.65-3.995-4.014-2.074-3.149zm-12.157 29.202-24.912 8.59-2.516-.903c7.303-2.182 19.162-5.119 27.428-7.687z" filter="url(#b)" paint-order="markers fill stroke" style="mix-blend-mode:normal"/></mask><filter id="b" width="1.547" height="1.419" x="-.325" y="-.22" color-interpolation-filters="sRGB"><feGaussianBlur stdDeviation="3.034"/></filter><radialGradient id="x" cx="104" cy="40.379" r="15.635" gradientTransform="matrix(.47902 .12746 -.69639 2.6171 82.304 -105.26)" gradientUnits="userSpaceOnUse"><stop offset="0" stop-color="#fff"/><stop offset="1" stop-color="#fff" stop-opacity="0"/></radialGradient><linearGradient id="y" x1="112.77" x2="96.571" y1="155.91" y2="133.31" gradientTransform="matrix(5.6965,0,0,5.6965,-492.3,-742.48)" gradientUnits="userSpaceOnUse"><stop offset="0" stop-color="#d2d2d2"/><stop offset=".5" stop-color="#fff"/><stop offset=".798" stop-color="silver"/></linearGradient></defs><g><path d="m88.792 91.629h-39.15c5.545 5.26 11.346 10.405 13.175 17.323 11.023-6.128 21.684-8.437 34.304-6.772.158 40.337-.431 53.28-11.731 65.527 6.762 2.493 16.592 13.61 18.544 21.851 2.71-9.719 12.962-19.983 18.616-21.864-11.493-11.555-10.748-25.475-10.715-65.689 12.474-1.13 21.892-.175 33.264 6.954 1.756-5.525 5.938-11.282 13.213-17.337l-39.114-.042c28.645-31.547 15.182-72.542-15.194-77.46-30.425 3.748-42.592 46.73-15.212 77.51zm15.157-61.978c16.082 6.595 21.845 42.292-.001 61.946-19.201-17.571-19.362-52.305.001-61.946z" filter="url(#c)" transform="translate(-33.877 -.70962) translate(29.905,-1.129)" style="mix-blend-mode:normal"/><g stroke-linecap="square" stroke-linejoin="round"><g stroke-width="1.51"><path fill="url(#d)" d="m103.95 24.439c31.116 4.758 35.021 48.922 0 72.511l-.001-3.787c24.419-22.73 14.933-57.17.001-63.556z" transform="translate(-33.877 -.70962) matrix(.97467 0 0 .97467 32.539 -5.097)"/><path fill="url(#e)" d="m103.95 24.414c31.116 4.758 35.021 48.947 0 72.536l-.001-3.787c24.419-22.73 14.933-57.17.001-63.556z" transform="translate(-33.877 -.70962) matrix(.97467 0 0 .97467 32.539 -5.097)"/><path fill="url(#f)" d="m104 13.672c-31.116 4.758-43.814 47.484-15.603 79.524l12.781 5.1718c-6.573-7.23-23.757-27.292-21.149-46.492 1.716-12.63 17.093-27.986 23.971-31.77z" transform="translate(-33.877 -.70962) matrix(.97467 0 0 .97467 32.539 -5.097)"/></g><g stroke-width="1.51"><path fill="#8e8e8e" d="m133.91 8.23c30.328 4.637 42.69 46.23 15.194 77.458l-12.47 5.079c6.406-7.047 23.182-26.588 20.64-45.302-1.672-12.31-16.66-27.277-23.364-30.965v-6.271z" transform="translate(-33.877 -.70962)"/><path fill="url(#g)" d="m168.23 12.106c8.313 5.45 13.825 13.373 16.102 23.84l-10.451-1.476c-.747-3.495 5.958-8.881-4.244-6.922-1.503-2.09-2.582-3.356-4.703-5.62-.782-5.129-9.945-18.276 3.297-9.822z" transform="translate(-33.877 -.70962) matrix(.97467 0 0 .97467 -16.562 1.563)" style="mix-blend-mode:normal"/><path fill="url(#h)" d="m180.12 24.679c9.453 16.49 7.846 41.195-10.149 61.632l-12.795 5.21c6.573-7.23 23.785-27.278 21.177-46.478-.416-3.062-1.635-6.283-3.34-9.462-7.782-8.86 1.582-8.304 5.107-10.9z" transform="translate(-33.877 -.70962) matrix(.97467 0 0 .97467 -16.562 1.563)"/><path fill="url(#i)" d="m180.07 25.495c9.453 16.49 7.472 39.958-10.523 60.395l-12.795 5.21c6.573-7.23 23.785-27.278 21.177-46.478-.416-3.062-1.635-6.283-3.34-9.462-7.782-8.86 1.956-7.067 5.48-9.665z" filter="url(#j)" transform="translate(-33.877 -.70962) matrix(.97467 0 0 .97467 -16.562 1.563)" style="mix-blend-mode:normal"/><path fill="url(#k)" d="m177.1 20.23c2.27 2.83 3.994 5.85 5.05 8.94l-8.333 4.15c-1.545-2.577-3.373-5.098-5.31-7.451z" transform="translate(-33.877 -.70962) matrix(.97467 0 0 .97467 -16.562 1.563)"/></g><path fill="url(#l)" d="m104.67 147.84-7.084.195.015.569-.34 1.216c1.88-1.036 3.136-1.466 6.179-1.22l1.23.624z" transform="translate(-33.877 -.70962) matrix(5.5522,0,0,5.5522,-447.29,-728.77)"/><path fill="url(#m)" d="m88.397 93.196h-40.168l12.649 7.793 40.3-2.6212-3.1097-1.4418z" transform="translate(-33.877 -.70962) matrix(.97467 0 0 .97467 32.539 -5.097)"/><path fill="url(#n)" d="m119.59 93.144 40.137.05165-12.649 7.793-40.314-2.582 3.062-1.481z" transform="translate(-33.877 -.70962) matrix(.97467 0 0 .97467 32.539 -5.097)"/><path fill="url(#o)" d="m111.71 148.76 1.0612-1.4066 1.697-.65745c-1.309 1.093-2.0766 2.1314-2.3866 3.1224z" transform="translate(-33.877 -.70962) matrix(5.5522,0,0,5.5522,-447.29,-728.77)"/><path fill="url(#p)" d="m104.67 147.84h6.903l.13346.92155.37154 1.0584c-1.88-1.036-2.945-1.497-5.988-1.251l-1.42.655z" transform="translate(-33.877 -.70962) matrix(5.5522,0,0,5.5522,-447.29,-728.77)"/><path fill="url(#q)" d="m106.09 148.57-.73482-.67565-.19518-.18185v12.694h2.857c-2.712-2.283-1.927-9.688-1.927-11.837z" transform="translate(-33.877 -.70962) matrix(5.5522,0,0,5.5522,-447.29,-728.77)"/><path fill="url(#r)" d="m108.02 160.41-3.344-.007-.006 3.938c.55-1.18.69-2.255 3.35-3.931z" transform="translate(-33.877 -.70962) matrix(5.5522,0,0,5.5522,-447.29,-728.77)"/><path fill="url(#s)" d="m101.32 160.4h3.353l-.006 3.938c-.55-1.18-.687-2.262-3.347-3.938z" transform="translate(-33.877 -.70962) matrix(5.5522,0,0,5.5522,-447.29,-728.77)"/><path fill="url(#t)" d="m103.44 148.6.743-.992v12.794l-2.863-.002c2.712-2.283 2.12-9.651 2.12-11.8z" transform="translate(-33.877 -.70962) matrix(5.5522,0,0,5.5522,-447.29,-728.77)"/><path fill="url(#u)" d="m97.603 148.6-1.03-1.242-1.69-.665c1.31 1.094 2.07 2.132 2.38 3.123z" transform="translate(-33.877 -.70962) matrix(5.5522,0,0,5.5522,-447.29,-728.77)"/></g><path fill="#ccc" d="m133.85 18.722c-30.328 4.638-34.134 47.683 0 70.675l.001-3.691c-23.8-22.155-14.555-55.722-.001-61.946z" transform="translate(-33.877 -.70962)"/><g mask="url(#v)" opacity=".501" transform="translate(-33.877 -.70962) matrix(.97467 0 0 .97467 99.858 4.023)" style="mix-blend-mode:normal"><path d="m34.881 15.057c-31.116 4.758-35.025 48.946-.0045 72.535l.002-3.787c-24.42-22.73-14.933-57.17-.002-63.556z"/></g><g stroke-linecap="square" stroke-linejoin="round"><path fill-opacity=".425" d="m65.85 2.97c-31.116 4.76-43.8 47.434-15.589 79.474l12.795 5.21c-6.573-7.23-23.785-27.278-21.177-46.478 1.716-12.63 17.093-27.986 23.971-31.77 3.167-1.743 0-3.183 0-6.435z" mask="url(#w)" transform="translate(-33.877 -.70962) matrix(.97467 0 0 .97467 69.727 5.334)"/><path fill="url(#x)" d="m104 13.672c31.116 4.758 43.771 47.484 15.56 79.524l-12.766 5.158c6.573-7.23 23.785-27.278 21.177-46.478-1.716-12.63-17.093-27.986-23.971-31.77z" transform="translate(-33.877 -.70962) matrix(.97467 0 0 .97467 32.539 -5.097)"/><path fill="url(#y)" d="m103.95 16.919c-30.04 4.683-40.265 49.78-5.882 80.007h-40.253l5.8684 7.1155c12.01-4.125 24.008-3.8985 36.357-4.0415 0 41.215-.659 55.602-9.32 71.237 4.86 4.033 9.091 7.9347 13.23 14.875 4.137-6.94 8.2408-10.803 13.101-14.835-8.66-15.633-9.1958-30.059-9.1958-71.278 12.35.144 23.816-.351 36.18 4.94l6.045-8.013h-40.253c34.383-30.228 24.162-75.325-5.878-80.007zm0 7.52c30.616 12.36 25.512 55.793 0 72.485-25.513-16.694-30.616-60.129 0-72.485z" transform="translate(-33.877 -.70962) matrix(.97467 0 0 .97467 32.539 -5.097)"/></g></g></svg>